<svg width="161" height="40" viewBox="0 0 161 40" fill="none" xmlns="http://www.w3.org/2000/svg">
<path d="M57.6719 20.4297C56.3854 20.0599 55.4479 19.6068 54.8594 19.0703C54.276 18.5286 53.9844 17.862 53.9844 17.0703C53.9844 16.1745 54.3411 15.4349 55.0547 14.8516C55.7734 14.263 56.7057 13.9688 57.8516 13.9688C58.6328 13.9688 59.3281 14.1198 59.9375 14.4219C60.5521 14.724 61.026 15.1406 61.3594 15.6719C61.6979 16.2031 61.8672 16.7839 61.8672 17.4141H60.3594C60.3594 16.7266 60.1406 16.1875 59.7031 15.7969C59.2656 15.401 58.6484 15.2031 57.8516 15.2031C57.112 15.2031 56.5339 15.3672 56.1172 15.6953C55.7057 16.0182 55.5 16.4688 55.5 17.0469C55.5 17.5104 55.6953 17.9036 56.0859 18.2266C56.4818 18.5443 57.151 18.8359 58.0938 19.1016C59.0417 19.3672 59.7812 19.6615 60.3125 19.9844C60.849 20.3021 61.2448 20.6745 61.5 21.1016C61.7604 21.5286 61.8906 22.0312 61.8906 22.6094C61.8906 23.5312 61.5312 24.2708 60.8125 24.8281C60.0938 25.3802 59.1328 25.6562 57.9297 25.6562C57.1484 25.6562 56.4193 25.5078 55.7422 25.2109C55.0651 24.9089 54.5417 24.4974 54.1719 23.9766C53.8073 23.4557 53.625 22.8646 53.625 22.2031H55.1328C55.1328 22.8906 55.3854 23.4349 55.8906 23.8359C56.401 24.2318 57.0807 24.4297 57.9297 24.4297C58.7214 24.4297 59.3281 24.2682 59.75 23.9453C60.1719 23.6224 60.3828 23.1823 60.3828 22.625C60.3828 22.0677 60.1875 21.638 59.7969 21.3359C59.4062 21.0286 58.6979 20.7266 57.6719 20.4297ZM65.1641 25.5H63.7188V17.0469H65.1641V25.5ZM63.6016 14.8047C63.6016 14.5703 63.6719 14.3724 63.8125 14.2109C63.9583 14.0495 64.1719 13.9688 64.4531 13.9688C64.7344 13.9688 64.9479 14.0495 65.0938 14.2109C65.2396 14.3724 65.3125 14.5703 65.3125 14.8047C65.3125 15.0391 65.2396 15.2344 65.0938 15.3906C64.9479 15.5469 64.7344 15.625 64.4531 15.625C64.1719 15.625 63.9583 15.5469 63.8125 15.3906C63.6719 15.2344 63.6016 15.0391 63.6016 14.8047ZM67.1406 21.2031C67.1406 19.8854 67.4453 18.8385 68.0547 18.0625C68.6641 17.2812 69.4714 16.8906 70.4766 16.8906C71.5078 16.8906 72.3125 17.2552 72.8906 17.9844L72.9609 17.0469H74.2812V25.2969C74.2812 26.3906 73.9557 27.2526 73.3047 27.8828C72.6589 28.513 71.7891 28.8281 70.6953 28.8281C70.0859 28.8281 69.4896 28.6979 68.9062 28.4375C68.3229 28.1771 67.8776 27.8203 67.5703 27.3672L68.3203 26.5C68.9401 27.2656 69.6979 27.6484 70.5938 27.6484C71.2969 27.6484 71.8438 27.4505 72.2344 27.0547C72.6302 26.6589 72.8281 26.1016 72.8281 25.3828V24.6562C72.25 25.3229 71.4609 25.6562 70.4609 25.6562C69.4714 25.6562 68.6693 25.2578 68.0547 24.4609C67.4453 23.6641 67.1406 22.5781 67.1406 21.2031ZM68.5938 21.3672C68.5938 22.3203 68.7891 23.0703 69.1797 23.6172C69.5703 24.1589 70.1172 24.4297 70.8203 24.4297C71.7318 24.4297 72.401 24.0156 72.8281 23.1875V19.3281C72.3854 18.5208 71.7214 18.1172 70.8359 18.1172C70.1328 18.1172 69.5833 18.3906 69.1875 18.9375C68.7917 19.4844 68.5938 20.2943 68.5938 21.3672ZM77.8359 17.0469L77.8828 18.1094C78.5286 17.2969 79.3724 16.8906 80.4141 16.8906C82.2005 16.8906 83.1016 17.8984 83.1172 19.9141V25.5H81.6719V19.9062C81.6667 19.2969 81.526 18.8464 81.25 18.5547C80.9792 18.263 80.5547 18.1172 79.9766 18.1172C79.5078 18.1172 79.0964 18.2422 78.7422 18.4922C78.388 18.7422 78.112 19.0703 77.9141 19.4766V25.5H76.4688V17.0469H77.8359ZM97.5 14.125V21.8594C97.4948 22.9323 97.1562 23.8099 96.4844 24.4922C95.8177 25.1745 94.9115 25.5573 93.7656 25.6406L93.3672 25.6562C92.1224 25.6562 91.1302 25.3203 90.3906 24.6484C89.651 23.9766 89.276 23.0521 89.2656 21.875V14.125H90.75V21.8281C90.75 22.651 90.9766 23.2917 91.4297 23.75C91.8828 24.2031 92.5286 24.4297 93.3672 24.4297C94.2161 24.4297 94.8646 24.2031 95.3125 23.75C95.7656 23.2969 95.9922 22.6589 95.9922 21.8359V14.125H97.5ZM106.781 21.3672C106.781 22.6536 106.487 23.6901 105.898 24.4766C105.31 25.263 104.513 25.6562 103.508 25.6562C102.482 25.6562 101.674 25.3307 101.086 24.6797V28.75H99.6406V17.0469H100.961L101.031 17.9844C101.62 17.2552 102.438 16.8906 103.484 16.8906C104.5 16.8906 105.302 17.2734 105.891 18.0391C106.484 18.8047 106.781 19.8698 106.781 21.2344V21.3672ZM105.336 21.2031C105.336 20.25 105.133 19.4974 104.727 18.9453C104.32 18.3932 103.763 18.1172 103.055 18.1172C102.18 18.1172 101.523 18.5052 101.086 19.2812V23.3203C101.518 24.0911 102.18 24.4766 103.07 24.4766C103.763 24.4766 104.312 24.2031 104.719 23.6562C105.13 23.1042 105.336 22.2865 105.336 21.2031Z" fill="#8794BA"/>
<rect x="0.5" y="0.5" width="160" height="39" rx="19.5" stroke="#465B95"/>
</svg>
